ffmpeg started on 2016-11-27 at 15:32:11
Report written to "Output/NVENCh264/results/ffmpeg/sintelllhq14000k.log"
Command line:
Tools/ffmpeg/ffmpeg -benchmark -y -i Input/y4m/sintel.y4m -c:v h264_nvenc -preset llhq -b:v 14000k -an Output/NVENCh264/encoded/sintelllhq14000k.mkv
ffmpeg version N-82227-gdb23fde Copyright (c) 2000-2016 the FFmpeg developers
  built with gcc 5.4.0 (Ubuntu 5.4.0-6ubuntu1~16.04.2) 20160609
  configuration: --prefix=/home/jaroslav/ffmpeg_build --pkg-config-flags=--static --extra-cflags=-I/home/jaroslav/ffmpeg_build/include --extra-ldflags=-L/home/jaroslav/ffmpeg_build/lib --bindir=/home/jaroslav/bin --enable-gpl --enable-libass --enable-libfdk-aac --enable-libfreetype --enable-libmp3lame --enable-libopus --enable-libtheora --enable-libvorbis --enable-libvpx --enable-libx264 --enable-libx265 --enable-nvenc --enable-libmfx --enable-libxvid --enable-libgsm --enable-libopencore-amrnb --enable-version3 --enable-nonfree
  libavutil      55. 35.100 / 55. 35.100
  libavcodec     57. 66.101 / 57. 66.101
  libavformat    57. 57.100 / 57. 57.100
  libavdevice    57.  2.100 / 57.  2.100
  libavfilter     6. 66.100 /  6. 66.100
  libswscale      4.  3.100 /  4.  3.100
  libswresample   2.  4.100 /  2.  4.100
  libpostproc    54.  2.100 / 54.  2.100
Input #0, yuv4mpegpipe, from 'Input/y4m/sintel.y4m':
  Duration: 00:00:20.83, start: 0.000000, bitrate: 2057307 kb/s
    Stream #0:0: Video: rawvideo (I420 / 0x30323449), yuv420p(progressive), 4096x1744, SAR 1:1 DAR 256:109, 24 fps, 24 tbr, 24 tbn, 24 tbc
[h264_nvenc @ 0x30c41c0] The variable bitrate rate-control requires the 'qmin' and/or 'qmax' option set.
Output #0, matroska, to 'Output/NVENCh264/encoded/sintelllhq14000k.mkv':
  Metadata:
    encoder         : Lavf57.57.100
    Stream #0:0: Video: h264 (h264_nvenc) (Main) (H264 / 0x34363248), yuv420p, 4096x1744 [SAR 1:1 DAR 256:109], q=-1--1, 14000 kb/s, 24 fps, 1k tbn, 24 tbc
    Metadata:
      encoder         : Lavc57.66.101 h264_nvenc
    Side data:
      cpb: bitrate max/min/avg: 0/0/14000000 buffer size: 28000000 vbv_delay: -1
Stream mapping:
  Stream #0:0 -> #0:0 (rawvideo (native) -> h264 (h264_nvenc))
Press [q] to stop, [?] for help
frame=   19 fps=0.0 q=0.0 size=       0kB time=00:00:00.00 bitrate=N/A speed=   0x    frame=   40 fps= 39 q=32.0 size=       1kB time=00:00:00.37 bitrate=  15.9kbits/s speed=0.363x    frame=   61 fps= 40 q=31.0 size=       1kB time=00:00:01.25 bitrate=   4.8kbits/s speed=0.81x    frame=   82 fps= 40 q=29.0 size=       1kB time=00:00:02.12 bitrate=   2.8kbits/s speed=1.04x    frame=  103 fps= 40 q=27.0 size=    5136kB time=00:00:03.00 bitrate=14019.0kbits/s speed=1.16x    frame=  124 fps= 40 q=26.0 size=    5136kB time=00:00:03.87 bitrate=10854.3kbits/s speed=1.25x    frame=  145 fps= 40 q=24.0 size=    5136kB time=00:00:04.75 bitrate=8855.2kbits/s speed=1.32x    frame=  158 fps= 22 q=28.0 size=    8095kB time=00:00:05.29 bitrate=12527.9kbits/s speed=0.745x    frame=  159 fps= 15 q=28.0 size=    8095kB time=00:00:05.33 bitrate=12431.6kbits/s speed=0.516x    frame=  160 fps= 12 q=28.0 size=    8095kB time=00:00:05.37 bitrate=12334.5kbits/s speed=0.407x    frame=  174 fps= 13 q=28.0 size=    8095kB time=00:00:05.95 bitrate=11127.8kbits/s speed=0.434x    frame=  195 fps= 14 q=25.0 size=    8095kB time=00:00:06.83 bitrate=9703.0kbits/s speed=0.48x    frame=  215 fps= 15 q=29.0 size=    8095kB time=00:00:07.66 bitrate=8647.7kbits/s speed=0.519x    frame=  235 fps= 15 q=27.0 size=   13225kB time=00:00:08.50 bitrate=12744.4kbits/s speed=0.557x    frame=  256 fps= 16 q=28.0 size=   13225kB time=00:00:09.37 bitrate=11555.0kbits/s speed=0.594x    frame=  277 fps= 17 q=25.0 size=   13225kB time=00:00:10.25 bitrate=10568.7kbits/s speed=0.629x    frame=  297 fps= 18 q=26.0 size=   18778kB time=00:00:11.08 bitrate=13878.3kbits/s speed=0.66x    frame=  318 fps= 18 q=27.0 size=   18778kB time=00:00:11.95 bitrate=12862.9kbits/s speed=0.691x    frame=  339 fps= 19 q=23.0 size=   18778kB time=00:00:12.83 bitrate=11985.9kbits/s speed=0.72x    frame=  360 fps= 20 q=21.0 size=   18778kB time=00:00:13.70 bitrate=11220.9kbits/s speed=0.748x    frame=  380 fps= 20 q=21.0 size=   23959kB time=00:00:14.54 bitrate=13496.2kbits/s speed=0.772x    frame=  401 fps= 21 q=22.0 size=   23959kB time=00:00:15.41 bitrate=12730.3kbits/s speed=0.797x    frame=  422 fps= 21 q=21.0 size=   23959kB time=00:00:16.29 bitrate=12046.6kbits/s speed=0.821x    frame=  442 fps= 22 q=26.0 size=   29156kB time=00:00:17.12 bitrate=13946.3kbits/s speed=0.841x    frame=  463 fps= 22 q=27.0 size=   29878kB time=00:00:18.00 bitrate=13597.0kbits/s speed=0.863x    frame=  483 fps= 22 q=27.0 size=   29878kB time=00:00:18.83 bitrate=12995.6kbits/s speed=0.874x    frame=  500 fps= 23 q=27.0 Lsize=   35741kB time=00:00:20.79 bitrate=14081.3kbits/s speed=0.944x    
video:35736kB audio:0kB subtitle:0kB other streams:0kB global headers:0kB muxing overhead: 0.013797%
bench: utime=1.028s
bench: maxrss=1197264kB
